<svg xmlns="http://www.w3.org/2000/svg" width="15" height="15" fill="none" viewBox="0 0 15 15"><path fill="#B3B3B3" fill-rule="evenodd" d="M1.35629 0.969727H4.06704C4.49301 0.969727 4.84154 1.31825 4.84154 1.74423C4.84154 2.71235 4.99644 3.64175 5.28301 4.50919C5.3682 4.78027 5.30624 5.08232 5.08938 5.29918L3.38548 7.00309C4.50076 9.19492 6.2976 10.984 8.48944 12.107L10.1933 10.4031C10.3482 10.256 10.5419 10.1785 10.7432 10.1785C10.8207 10.1785 10.9059 10.1863 10.9833 10.2173C11.8508 10.5038 12.7879 10.6587 13.7483 10.6587C14.1743 10.6587 14.5228 11.0073 14.5228 11.4332V14.1362C14.5228 14.5622 14.1743 14.9107 13.7483 14.9107C6.47574 14.9107 0.581787 9.01679 0.581787 1.74423C0.581787 1.31825 0.930312 0.969727 1.35629 0.969727ZM3.32348 2.51866C3.36995 3.20796 3.48613 3.88178 3.67201 4.52462L2.74261 5.45402C2.42506 4.52462 2.22369 3.541 2.15399 2.51866H3.32348ZM10.9601 11.8283C11.6184 12.0142 12.2922 12.1304 12.9738 12.1768V13.3308C11.9515 13.2611 10.9678 13.0598 10.0307 12.75L10.9601 11.8283Z" clip-rule="evenodd"/></svg>