<svg xmlns="http://www.w3.org/2000/svg" width="9" height="16" fill="none" viewBox="0 0 9 16"><path fill="#000" d="M8.21332 0.971188L6.38967 0.968262C4.34086 0.968262 3.01683 2.32667 3.01683 4.42917V6.02488H1.18324C1.02479 6.02488 0.896484 6.15334 0.896484 6.31178V8.62379C0.896484 8.78223 1.02494 8.91054 1.18324 8.91054H3.01683V14.7445C3.01683 14.9029 3.14514 15.0312 3.30358 15.0312H5.69591C5.85435 15.0312 5.98266 14.9028 5.98266 14.7445V8.91054H8.12656C8.28501 8.91054 8.41332 8.78223 8.41332 8.62379L8.41419 6.31178C8.41419 6.23571 8.38391 6.16285 8.33022 6.10901C8.27652 6.05517 8.20337 6.02488 8.1273 6.02488H5.98266V4.67218C5.98266 4.02202 6.13759 3.69196 6.98453 3.69196L8.21303 3.69152C8.37133 3.69152 8.49963 3.56307 8.49963 3.40477V1.25794C8.49963 1.09979 8.37147 0.97148 8.21332 0.971188Z" opacity=".3"/></svg>