<svg width="32" height="32" viewBox="0 0 32 32" fill="none" xmlns="http://www.w3.org/2000/svg">
<path fill-rule="evenodd" clip-rule="evenodd" d="M16 0C24.8307 0 32 7.16934 32 16C32 24.8307 24.8307 32 16 32C7.16934 32 0 24.8307 0 16C0 7.16934 7.16934 0 16 0ZM10.9977 24.9919V12.4969H6.84371V24.9919H10.9977ZM25.974 24.9919V17.8266C25.974 13.9885 23.9247 12.2031 21.1921 12.2031C18.9887 12.2031 18.0017 13.4148 17.4491 14.266V12.4969H13.2961C13.3512 13.6692 13.2961 24.9919 13.2961 24.9919H17.449V18.0138C17.449 17.6403 17.4759 17.2669 17.5859 17C17.8856 16.2541 18.5695 15.4813 19.7169 15.4813C21.219 15.4813 21.8208 16.6276 21.8208 18.3066V24.9919H25.974ZM8.94874 6.47187C7.52749 6.47187 6.59891 7.40627 6.59891 8.63091C6.59891 9.82982 7.49926 10.79 8.89376 10.79H8.92058C10.369 10.79 11.2706 9.82982 11.2706 8.63091C11.2437 7.40627 10.3691 6.47187 8.94874 6.47187Z" fill="rgb(211,211,211)" fill-opacity="0.8"/>
</svg>
