<svg width="274" height="162" viewBox="0 0 274 162" fill="none" xmlns="http://www.w3.org/2000/svg">
<g opacity="0.345889">
<path opacity="0.345889" fill-rule="evenodd" clip-rule="evenodd" d="M250.952 78.9956C247.292 50.2818 50.9365 -5.13906 14.4837 22.0582C-21.9691 49.2554 13.0757 100.297 89.4673 113.368C165.859 126.439 254.612 107.71 250.952 78.9956Z" fill="#EE2B2B" fill-opacity="0.2"/>
<path opacity="0.345889" fill-rule="evenodd" clip-rule="evenodd" d="M31.4537 97.6526C34.9038 73.2591 220.018 26.177 254.384 49.2821C288.749 72.3871 280.051 120.986 208.033 132.09C136.015 143.194 28.0036 122.046 31.4537 97.6526Z" fill="#0F91C7" fill-opacity="0.4"/>
</g>
<path d="M194.132 13.3498L209.363 4.25017C209.921 3.91661 210.617 3.91661 211.176 4.25017L248.365 26.4685C249.433 27.1066 250.087 28.2591 250.087 29.5032V160.446" stroke="#CBCBCB" stroke-width="8"/>
<path d="M255.831 160.225H244.121C243.755 160.225 243.459 160.522 243.459 160.888V161.109C243.459 161.475 243.755 161.771 244.121 161.771H255.831C256.197 161.771 256.494 161.475 256.494 161.109V160.888C256.494 160.522 256.197 160.225 255.831 160.225Z" fill="#AFB9C5"/>
<path fill-rule="evenodd" clip-rule="evenodd" d="M198.67 10.105C201.517 12.9524 201.517 17.5688 198.67 20.4162L194.296 24.7906L183.985 14.4794L188.359 10.105C191.206 7.25769 195.823 7.25769 198.67 10.105Z" fill="#C5CFD6"/>
<path d="M188.299 20.5329C191.147 23.3802 193.909 25.2338 194.47 24.673C195.031 24.1121 193.178 21.3492 190.33 18.5019C187.483 15.6546 184.72 13.801 184.159 14.3618C183.598 14.9227 185.452 17.6855 188.299 20.5329Z" fill="#F2F2F2"/>
<path fill-rule="evenodd" clip-rule="evenodd" d="M211.012 99.5129C212.963 104.15 216.281 107.372 218.038 112.194C219.08 115.054 219.514 118.163 219.54 121.347C219.555 123.076 219.525 124.807 219.517 126.537C219.509 128.223 219.463 129.899 219.32 131.575C219.176 133.26 219.015 134.925 218.944 136.62C218.888 137.941 218.863 139.477 218.415 140.682C218.059 141.64 217.154 141.78 216.914 140.618C216.781 139.972 216.798 139.251 216.812 138.587C216.831 137.735 216.881 136.885 216.906 136.033C217.008 132.616 216.876 129.198 216.945 125.779C217.012 122.439 217.441 119.102 216.966 115.784C216.574 113.044 215.577 110.691 214.432 108.436C213.33 106.265 212.131 104.148 211.386 101.679C211.172 100.971 211.007 100.236 210.928 99.4736C210.962 99.4575 210.99 99.4706 211.012 99.5129Z" fill="#C1DEE2"/>
<path fill-rule="evenodd" clip-rule="evenodd" d="M210.48 108.662C210.866 108.941 211.082 109.349 211.343 109.752C211.668 110.253 212.05 110.705 212.375 111.206C213.052 112.251 213.647 113.359 214.264 114.446C215.436 116.51 216.326 118.709 216.766 121.096C217.223 123.57 217.346 126.123 217.538 128.634C217.741 131.295 217.946 133.975 217.973 136.646C217.985 137.843 218.049 139.114 217.906 140.302C217.816 141.042 217.482 141.672 216.73 141.666C215.131 141.654 214.38 139.883 214.067 138.43C213.605 136.292 213.513 134.02 213.586 131.833C213.674 129.196 214.132 126.599 214.33 123.972C214.54 121.191 214.421 118.459 213.465 115.841C212.982 114.517 212.422 113.226 211.918 111.911C211.704 111.352 211.528 110.777 211.239 110.256C210.917 109.676 210.517 109.15 210.265 108.526C210.336 108.571 210.408 108.617 210.48 108.662Z" fill="#89C5CC"/>
<path fill-rule="evenodd" clip-rule="evenodd" d="M228.897 103.116C228.946 103.078 228.995 103.04 229.044 103.002C228.903 103.597 228.648 104.08 228.453 104.624C228.278 105.113 228.189 105.666 228.071 106.2C227.794 107.455 227.474 108.682 227.212 109.948C226.694 112.453 226.792 115.151 227.131 117.93C227.452 120.555 227.96 123.176 228.202 125.801C228.403 127.977 228.489 130.222 228.297 132.299C228.167 133.709 227.741 135.393 226.581 135.25C226.034 135.183 225.749 134.526 225.634 133.783C225.45 132.59 225.411 131.336 225.339 130.15C225.178 127.503 225.147 124.864 225.115 122.244C225.085 119.772 225.002 117.251 225.167 114.841C225.327 112.516 225.825 110.421 226.537 108.488C226.913 107.469 227.27 106.427 227.692 105.456C227.894 104.991 228.141 104.579 228.343 104.114C228.506 103.74 228.635 103.356 228.897 103.116Z" fill="#C1DEE2"/>
<path fill-rule="evenodd" clip-rule="evenodd" d="M210.974 116.325C211.185 115.97 211.651 117.141 211.721 117.288C211.691 117.215 211.661 117.142 211.631 117.068C212.051 117.766 212.435 118.493 212.673 119.293C212.909 120.085 213.112 120.893 213.334 121.691C213.75 123.187 214.286 124.641 214.663 126.152C215.03 127.623 215.123 129.07 215.034 130.592C214.942 132.174 214.885 133.78 214.993 135.361C215.044 136.117 215.29 136.82 215.458 137.547C215.626 138.275 215.759 139.012 215.958 139.731C216.004 139.637 216.009 139.95 216.009 139.974C216.008 140.154 215.983 140.304 215.925 140.474C215.777 140.912 215.499 141.284 215.076 141.405C214.313 141.623 213.604 140.928 213.357 140.195C213.004 139.142 212.809 137.979 212.641 136.873C212.487 135.859 212.45 134.838 212.496 133.81C212.586 131.782 212.953 129.78 213.053 127.753C213.161 125.546 212.723 123.472 212.357 121.323C212.181 120.288 212.012 119.263 211.669 118.276C211.53 117.877 211.349 117.525 211.159 117.156C211.051 116.946 210.832 116.572 210.974 116.325Z" fill="#C1DEE2"/>
<path fill-rule="evenodd" clip-rule="evenodd" d="M217.17 112.877C217.082 115.406 216.931 117.915 216.594 120.417C216.25 122.97 215.855 125.515 215.523 128.07C215.201 130.558 214.863 133.087 214.908 135.609C214.942 137.467 214.634 140.61 216.697 141.527C218.787 142.455 219.235 138.49 219.372 137.181C219.635 134.67 219.55 132.132 219.422 129.607C219.291 127.016 219.073 124.437 218.802 121.855C218.501 118.988 218.264 116.107 218.075 113.231C217.981 111.808 217.958 110.388 217.984 108.965C218.008 107.622 217.957 106.265 217.48 104.99C217.455 105.009 217.43 105.027 217.405 105.045" fill="#69A1AC"/>
<path fill-rule="evenodd" clip-rule="evenodd" d="M227.959 120.888C227.583 121.436 227.204 121.978 226.849 122.558C226.214 123.595 225.64 124.749 225.467 126.233C225.105 129.338 225.395 132.692 225.465 135.892C225.48 136.546 225.397 137.18 225.655 137.802C225.888 138.366 226.325 138.797 226.742 138.794C227.633 138.789 227.497 136.606 227.499 135.645C227.501 133.961 227.313 132.259 227.329 130.577C227.345 128.909 227.446 127.238 227.688 125.654C227.933 124.052 228.291 122.513 228.764 121.077C228.83 120.878 229.301 119.338 228.856 119.603" fill="#89C5CC"/>
<path fill-rule="evenodd" clip-rule="evenodd" d="M224.02 104.328C223.434 104.328 223.438 107.25 223.42 107.625C223.356 108.98 223.371 110.334 223.331 111.689C223.243 114.646 223.135 117.628 222.691 120.55C222.451 122.123 222.174 123.69 221.876 125.251C221.577 126.817 221.176 128.38 220.979 129.966C220.79 131.49 220.897 133.045 220.923 134.576C220.949 136.117 220.995 137.661 221.197 139.189C221.247 139.566 221.305 139.942 221.368 140.317C221.42 140.629 221.39 141.016 221.478 141.313C221.619 141.788 222.224 141.944 222.632 141.87C223.735 141.668 224.44 140.283 224.816 139.271C225.298 137.979 225.553 136.577 225.805 135.216C226.09 133.673 226.258 132.107 226.336 130.536C226.496 127.344 226.291 124.148 226.062 120.966C225.935 119.197 225.788 117.435 225.563 115.676C225.339 113.925 225.052 112.182 224.865 110.426C224.729 109.149 224.595 107.871 224.507 106.59C224.486 106.285 224.469 104.328 224.02 104.328Z" fill="#69A1AC"/>
<path fill-rule="evenodd" clip-rule="evenodd" d="M223.287 125.568C223.191 122.5 221.958 109.024 221.677 105.315C221.607 104.386 220.932 100.52 220.844 99.4669C220.607 99.7645 220.627 104.396 220.63 105.46C220.632 106.513 220.502 107.548 220.435 108.595C220.366 109.663 218.787 123.461 218.582 124.488C218.174 126.53 217.901 128.626 217.691 130.714C217.486 132.749 217.167 134.896 217.441 136.942C217.504 137.413 217.604 137.877 217.766 138.309C217.942 138.777 218.062 139.209 218.203 139.698C218.43 140.486 218.84 141.178 219.471 141.503C220.763 142.17 221.457 140.66 221.809 139.346C222.371 137.246 222.731 135.113 222.9 132.908C223.087 130.469 223.363 128.024 223.287 125.568Z" fill="#89C5CC"/>
<path d="M229.266 134.596H210.044C209.8 134.596 209.602 134.794 209.602 135.038V154.26C209.602 154.504 209.8 154.702 210.044 154.702H229.266C229.51 154.702 229.708 154.504 229.708 154.26V135.038C229.708 134.794 229.51 134.596 229.266 134.596Z" fill="#F2F2F2"/>
<path d="M209.16 136.805H207.835C207.591 136.805 207.393 137.003 207.393 137.247V161.33C207.393 161.574 207.591 161.772 207.835 161.772H209.16C209.405 161.772 209.602 161.574 209.602 161.33V137.247C209.602 137.003 209.405 136.805 209.16 136.805Z" fill="#C5CFD6"/>
<path d="M220.207 136.805H218.881C218.637 136.805 218.439 137.003 218.439 137.247V161.33C218.439 161.574 218.637 161.772 218.881 161.772H220.207C220.451 161.772 220.649 161.574 220.649 161.33V137.247C220.649 137.003 220.451 136.805 220.207 136.805Z" fill="#C5CFD6"/>
<path d="M231.475 136.805H230.149C229.905 136.805 229.707 137.003 229.707 137.247V161.33C229.707 161.574 229.905 161.772 230.149 161.772H231.475C231.719 161.772 231.917 161.574 231.917 161.33V137.247C231.917 137.003 231.719 136.805 231.475 136.805Z" fill="#C5CFD6"/>
<path fill-rule="evenodd" clip-rule="evenodd" d="M64.3023 88.3484C63.157 87.004 62.3818 85.3564 62.5113 83.5103C62.8846 78.191 70.2892 79.3611 71.7295 82.0459C73.1699 84.7306 72.9987 91.5406 71.1372 92.0204C70.3948 92.2118 68.8134 91.743 67.2038 90.7729L68.2141 97.9204H62.2487L64.3023 88.3484Z" fill="#B28B67"/>
<path fill-rule="evenodd" clip-rule="evenodd" d="M69.3732 79.122C68.5581 78.8735 67.3748 78.7892 66.877 78.8462C67.1602 78.1678 67.2726 77.4119 67.181 76.676C67.0919 75.9609 66.7724 75.352 66.4769 74.7139C66.3406 74.4198 66.1863 74.1273 65.9561 73.9024C65.7216 73.6732 65.4248 73.5219 65.1136 73.4497C64.7951 73.3759 64.4621 73.382 64.1431 73.4491C64.002 73.4787 63.8754 73.5432 63.737 73.5791C63.5953 73.6158 63.5265 73.5271 63.4237 73.438C63.1758 73.2232 62.8123 73.1172 62.4987 73.0792C62.1469 73.0367 61.7817 73.0897 61.4462 73.2054C61.1195 73.318 60.8057 73.5009 60.5696 73.7673C60.4644 73.8858 60.369 74.0208 60.307 74.1698C60.2815 74.231 60.2773 74.2672 60.2163 74.2896C60.1599 74.3103 60.0938 74.3109 60.0356 74.3307C59.4724 74.5214 58.9909 74.9566 58.7287 75.5153C58.5757 75.8413 58.5033 76.4152 58.5231 77.0584C58.543 77.7016 59.1238 79.38 59.667 79.9922C60.1519 80.5387 60.8646 80.8993 61.5525 81.0571C61.0959 81.579 60.792 82.2311 60.5673 82.8943C60.3232 83.6147 60.1721 84.3633 60.1163 85.126C60.0633 85.8506 60.0584 86.617 60.2283 87.3261C60.3872 87.9893 60.727 88.5334 61.2944 88.8785C61.5543 89.0366 61.8339 89.1554 62.1151 89.264C62.3923 89.371 62.6703 89.475 62.9606 89.535C63.5101 89.6486 64.1432 89.6291 64.5665 89.1917C64.719 89.034 64.8868 88.8359 64.9981 88.6433C65.0381 88.574 65.0622 88.5287 65.0136 88.461C64.9554 88.3799 64.8612 88.3178 64.7864 88.2544C64.3597 87.8927 64.0956 87.4098 64.029 86.836C63.9615 86.2538 64.1178 85.5024 64.6839 85.2483C65.3826 84.9346 66.1521 85.2946 66.7732 85.6302C67.0371 84.6987 67.579 83.8599 68.4287 83.4326C69.3687 82.9599 70.4473 82.9046 71.4133 82.499C71.6651 82.3933 71.9215 82.2733 72.1068 82.0579C72.1842 81.9679 72.2751 81.8512 72.306 81.7321C72.3466 81.5758 72.2458 81.4447 72.1679 81.3228C71.7548 80.6764 70.1884 79.3706 69.3732 79.122Z" fill="#191847"/>
<path d="M61.752 162C72.3221 162 80.8908 153.792 80.8908 143.666C80.8908 133.54 72.3221 125.332 61.752 125.332C51.1819 125.332 42.6132 133.54 42.6132 143.666C42.6132 153.792 51.1819 162 61.752 162Z" fill="#C5CFD6"/>
<path fill-rule="evenodd" clip-rule="evenodd" d="M97.8744 159.138C94.6944 152.086 92.3946 145.945 91.4715 142.706C89.891 137.158 88.6886 132.277 88.3847 130.454C87.66 126.107 93.9594 125.854 94.7921 128.015C96.0524 131.284 98.2525 142.027 100.896 158.255L97.8744 159.138ZM60.9884 137.007C63.9061 135.852 74.1234 132.235 79.0513 131.212C80.4673 130.918 81.8398 130.645 83.1302 130.399C86.9657 129.665 88.9528 136.598 85.2588 137.13C76.0592 138.457 63.0172 139.827 61.9011 139.981C60.3369 140.196 59.1548 137.733 60.9884 137.007Z" fill="#B28B67"/>
<path fill-rule="evenodd" clip-rule="evenodd" d="M85.4842 128.49L69.7026 120.441V118.689H71.5795C86.8474 122.587 94.6493 125.085 94.9852 126.183C94.9888 126.195 94.9921 126.207 94.9951 126.219C95.0028 126.229 95.0104 126.239 95.0178 126.249C98.0436 130.419 99.8557 150.774 100.45 152.298L94.6524 153.165C92.4345 144.924 85.3385 139.184 85.527 129.314C85.4761 129.025 85.4632 128.75 85.4842 128.49Z" fill="#1F28CF"/>
<path fill-rule="evenodd" clip-rule="evenodd" d="M71.0137 133.271C69.5698 132.981 68.24 132.723 67.1022 132.523C59.7525 131.231 57.6093 127.289 58.8764 118.689H72.4181C74.6302 119.325 86.1261 124.156 92.0907 126.725C96.0384 128.425 94.7939 134.555 92.5584 136.15C92.5462 136.248 92.506 136.315 92.4344 136.344C80.4086 141.338 70.8951 138.718 67.717 139.555L66.247 134.909L71.0137 133.271Z" fill="#2B44FF"/>
<path fill-rule="evenodd" clip-rule="evenodd" d="M61.9525 136.197C61.1278 136.276 60.5446 136.4 60.2028 136.567C59.7974 136.765 59.2383 137.121 58.5256 137.636C58.7523 138.102 60.7889 142.289 64.6357 150.198C65.8838 149.992 66.3803 149.516 66.125 148.77C65.8698 148.024 65.6641 147.401 65.5078 146.902L65.2945 139.75C65.2909 139.628 65.1887 139.533 65.0662 139.537C65.064 139.538 65.0618 139.538 65.0596 139.538L63.9299 139.614C63.3066 139.113 62.8959 138.659 62.6979 138.252C62.5329 137.912 62.4453 137.371 62.435 136.628L62.435 136.628C62.4317 136.384 62.2303 136.19 61.9854 136.196C61.9744 136.196 61.9634 136.196 61.9525 136.197Z" fill="#E4E4E4"/>
<path fill-rule="evenodd" clip-rule="evenodd" d="M96.4486 157.774C96.1567 158.545 96.0107 159.12 96.0107 159.498C96.0107 159.946 96.0853 160.6 96.2344 161.461C96.7536 161.461 101.42 161.461 110.233 161.461C110.597 160.256 110.387 159.605 109.603 159.509C108.819 159.413 108.168 159.326 107.65 159.249L101.118 156.331C101.007 156.282 100.876 156.332 100.826 156.443C100.825 156.445 100.824 156.447 100.824 156.449L100.395 157.492C99.669 157.831 99.0795 158 98.6258 158C98.2478 158 97.722 157.843 97.0485 157.53L97.0485 157.53C96.8273 157.426 96.5644 157.522 96.4614 157.743C96.4567 157.753 96.4525 157.763 96.4486 157.774Z" fill="#E4E4E4"/>
<path fill-rule="evenodd" clip-rule="evenodd" d="M82.7695 115.276L90.698 121.088C92.8484 121.667 94.645 122.388 96.0877 123.25C96.4286 123.56 96.8405 124.187 95.427 124.079C94.0136 123.97 92.5221 123.92 92.327 124.401C92.132 124.882 92.9873 125.458 92.5931 126.107C92.3303 126.54 91.0886 125.454 88.8682 122.851L81.0169 119.601L82.7695 115.276ZM52.3281 115.477L57.5222 115.497C54.3151 125.832 52.5837 131.315 52.3281 131.948C51.7529 133.371 52.97 135.537 53.4905 136.702C51.7953 137.459 51.9759 134.655 49.8375 135.648C47.8857 136.554 46.4009 138.197 44.1459 136.808C43.8686 136.637 43.5648 135.994 44.2989 135.492C46.1277 134.24 48.7631 132.049 49.1192 131.328C49.6048 130.345 50.6744 125.061 52.3281 115.477Z" fill="#B28B67"/>
<path fill-rule="evenodd" clip-rule="evenodd" d="M67.0892 93.72L69.2385 93.352C77.2131 100.229 80.4886 113.44 90.2635 120.438L87.9107 123.349C70.9531 121.253 66.7499 105.139 67.0892 93.72Z" fill="#C52222"/>
<path fill-rule="evenodd" clip-rule="evenodd" d="M57.7202 120.682C66.3382 120.682 72.6774 120.682 76.7378 120.682C77.6068 120.682 77.4431 119.43 77.3175 118.798C75.8677 111.503 70.2081 103.64 70.2081 93.2559L64.7226 92.3972C60.1853 99.6815 58.6162 108.65 57.7202 120.682Z" fill="#DDE3E9"/>
<path fill-rule="evenodd" clip-rule="evenodd" d="M57.8727 99.5572C57.076 99.3286 56.4451 98.7954 55.98 97.9577C53.9751 94.3464 54.6991 92.3581 56.8418 91.7045C58.9845 91.0509 60.8953 92.3972 64.3091 92.3972C64.4948 92.3972 64.6649 92.4088 64.8193 92.432L66.5366 92.5298C71.4636 109.198 72.8224 120.319 70.6131 125.892H55.6449C54.7581 127.957 53.9094 129.693 53.099 131.103H49.0204C48.6366 118.714 51.5874 108.199 57.8727 99.5572Z" fill="#ED2B2B"/>
<path fill-rule="evenodd" clip-rule="evenodd" d="M58.9041 117.332C59.3749 121.264 60.14 124.117 61.1995 125.892H55.6447C56.6791 123.484 57.7656 120.631 58.9041 117.332H58.9041Z" fill="black" fill-opacity="0.1"/>
<path fill-rule="evenodd" clip-rule="evenodd" d="M170.067 84.9854C171.264 83.572 172.075 81.84 171.94 79.8991C171.549 74.3071 163.806 75.5373 162.3 78.3596C160.793 81.182 160.972 88.3413 162.919 88.8457C163.695 89.0469 165.349 88.5541 167.032 87.5342L165.976 95.0482H172.214L170.067 84.9854Z" fill="#915B3C"/>
<path fill-rule="evenodd" clip-rule="evenodd" d="M170.546 86.2443C171.329 82.7426 173.56 80.3555 173.219 78.7904C172.992 77.747 172.387 77.0981 171.403 76.8438C170.894 74.7751 169.254 73.8952 166.481 74.2041C162.323 74.6675 159.785 76.4036 160.881 80.2239C161.888 80.2239 163.105 79.8576 164.787 80.4853C165.32 80.6844 165.702 81.302 165.932 82.3379H166.692C167.43 81.1085 168.157 80.6567 168.874 80.9826C169.591 81.3085 169.754 82.1 169.363 83.3572L169.738 86.2443H170.546Z" fill="#191847"/>
<path fill-rule="evenodd" clip-rule="evenodd" d="M190.228 127.747H158.854C156.902 127.747 155.319 129.33 155.319 131.282V158.016C155.319 159.968 156.902 161.551 158.854 161.551H190.228C192.18 161.551 193.763 159.968 193.763 158.016V131.282C193.763 129.33 192.18 127.747 190.228 127.747ZM185.556 135.38C186.044 135.38 186.44 135.776 186.44 136.264V153.034C186.44 153.522 186.044 153.918 185.556 153.918H163.526C163.038 153.918 162.642 153.522 162.642 153.034V136.264C162.642 135.776 163.038 135.38 163.526 135.38H185.556Z" fill="#C5CFD6"/>
<path fill-rule="evenodd" clip-rule="evenodd" d="M129.688 158.671C134.828 152.395 138.306 147.742 140.122 144.712C143.231 139.525 145.775 134.909 146.578 133.146C148.493 128.941 142.17 126.972 140.739 128.933C138.573 131.902 133.947 141.242 126.862 156.955L129.688 158.671Z" fill="#B28B67"/>
<path fill-rule="evenodd" clip-rule="evenodd" d="M140.222 156.846L149.788 132.768C151.834 128.379 141.954 125.494 140.45 127.536C137.036 132.174 128.923 150.468 127.906 151.85L140.222 156.846Z" fill="#2F3676"/>
<path fill-rule="evenodd" clip-rule="evenodd" d="M165.699 152.004C163.838 149.288 157.068 140.148 153.378 136.368C152.318 135.282 151.283 134.239 150.305 133.268C147.396 130.38 141.586 135.252 144.49 137.882C151.721 144.431 162.272 153.27 163.154 154.059C164.389 155.163 166.868 153.712 165.699 152.004Z" fill="#915B3C"/>
<path fill-rule="evenodd" clip-rule="evenodd" d="M165.207 150.727C165.886 151.277 166.324 151.724 166.523 152.069C166.756 152.474 167.029 153.104 167.341 153.96C166.868 154.233 162.617 156.692 154.588 161.335C153.63 160.439 153.482 159.74 154.146 159.241C154.81 158.741 155.358 158.32 155.79 157.977L160.229 151.89C160.301 151.792 160.439 151.769 160.537 151.84C160.539 151.842 160.541 151.843 160.542 151.844L161.485 152.567C162.322 152.491 162.948 152.333 163.361 152.094C163.709 151.893 164.11 151.468 164.566 150.819L164.566 150.819C164.707 150.619 164.982 150.569 165.182 150.708C165.19 150.714 165.199 150.72 165.207 150.727Z" fill="#E4E4E4"/>
<path fill-rule="evenodd" clip-rule="evenodd" d="M131.868 157.651C132.181 158.471 132.337 159.081 132.337 159.481C132.337 159.951 132.259 160.637 132.102 161.539C131.557 161.539 126.655 161.539 117.398 161.539C117.016 160.276 117.236 159.594 118.059 159.493C118.883 159.392 119.567 159.301 120.111 159.22L126.983 156.157C127.094 156.107 127.225 156.157 127.275 156.269C127.276 156.271 127.276 156.273 127.277 156.274L127.732 157.378C128.494 157.733 129.114 157.911 129.59 157.911C129.991 157.911 130.551 157.743 131.268 157.408L131.268 157.408C131.489 157.304 131.752 157.4 131.856 157.621C131.86 157.631 131.865 157.641 131.868 157.651Z" fill="#E4E4E4"/>
<path fill-rule="evenodd" clip-rule="evenodd" d="M153.23 133.971C161.18 132.676 166.506 131.79 169.206 131.314C176.903 129.957 179.148 125.815 177.821 116.779H163.639C161.762 117.321 153.921 120.672 140.115 126.834C137.631 128.067 138.093 131.702 138.547 132.9C138.566 132.949 142.753 140.124 151.11 154.425L162.711 147.035L153.208 134.842C152.957 134.336 152.964 134.046 153.23 133.971Z" fill="#5C63AB"/>
<path fill-rule="evenodd" clip-rule="evenodd" d="M152.213 113.381L143.899 119.497C141.644 120.107 139.76 120.865 138.247 121.773C137.89 122.099 137.458 122.759 138.94 122.645C140.422 122.531 141.986 122.478 142.19 122.984C142.395 123.491 141.498 124.096 141.911 124.78C142.187 125.235 143.489 124.093 145.818 121.353L154.05 117.933L152.213 113.381ZM184.134 113.592L178.687 113.614C182.05 124.49 183.866 130.261 184.134 130.926C184.737 132.424 183.461 134.704 182.915 135.93C184.693 136.726 184.503 133.775 186.745 134.82C188.792 135.774 190.349 137.503 192.714 136.041C193.005 135.861 193.323 135.185 192.553 134.656C190.636 133.339 187.872 131.033 187.499 130.274C186.99 129.239 185.868 123.679 184.134 113.592Z" fill="#915B3C"/>
<path fill-rule="evenodd" clip-rule="evenodd" d="M168.655 90.696L166.402 90.3087C158.039 97.5456 154.605 111.448 144.355 118.813L146.822 121.877C164.604 119.671 169.011 102.713 168.655 90.696Z" fill="#10698D"/>
<path fill-rule="evenodd" clip-rule="evenodd" d="M178.48 119.071C169.443 119.071 162.795 119.071 158.538 119.071C157.626 119.071 157.798 117.752 157.93 117.087C159.45 109.41 165.385 101.135 165.385 90.2074L171.137 89.3037C175.895 96.9696 177.54 106.408 178.48 119.071Z" fill="#DDE3E9"/>
<path fill-rule="evenodd" clip-rule="evenodd" d="M178.32 96.8389C179.155 96.5983 179.817 96.0372 180.304 95.1556C182.407 91.3551 181.647 89.2627 179.401 88.5749C177.154 87.8871 175.15 89.3038 171.57 89.3038C171.376 89.3038 171.197 89.316 171.035 89.3405L169.235 89.4434C164.068 106.985 162.643 118.688 164.96 124.554H180.656C181.586 126.726 182.476 128.554 183.325 130.037H187.602C188.005 116.999 184.911 105.933 178.32 96.8389Z" fill="#178ABA"/>
<path fill-rule="evenodd" clip-rule="evenodd" d="M177.238 115.545C176.744 119.683 175.942 122.686 174.831 124.554H180.656C179.571 122.02 178.432 119.017 177.238 115.545V115.545Z" fill="black" fill-opacity="0.1"/>
</svg>
