<svg width="28" height="33" viewBox="0 0 28 33" fill="none" xmlns="http://www.w3.org/2000/svg">
<path d="M2.69731 0C1.21855 0 0 1.21855 0 2.69731V29.6704C0 31.1491 1.21855 32.3677 2.69731 32.3677H25.3027C26.7814 32.3677 28 31.1491 28 29.6704V2.69731C28 1.21855 26.7814 0 25.3027 0H2.69731ZM2.69731 1.7982H25.3027C25.8163 1.7982 26.2018 2.18365 26.2018 2.69731V29.6704C26.2018 30.184 25.8163 30.5695 25.3027 30.5695H2.69731C2.18365 30.5695 1.7982 30.184 1.7982 29.6704V2.69731C1.7982 2.18365 2.18365 1.7982 2.69731 1.7982ZM14 4.71958C12.6433 4.72494 11.5488 5.84068 11.5577 7.21108C11.5488 8.59508 12.6433 9.71096 14 9.70398C15.3566 9.71106 16.4512 8.59508 16.4423 7.21108C16.4512 5.84068 15.3566 4.72493 14 4.71958ZM11.4123 10.3902C9.69483 10.3971 8.18093 13.2786 8.18674 15.0431H19.8133C19.8193 13.2786 18.305 10.3971 16.5877 10.3902H11.4123ZM3.90688 18.577V20.3541H23.9147V18.577H3.90688ZM3.90688 22.2429V24.0201H23.9147V22.2429H3.90688ZM3.90688 25.9089V27.686H23.9147V25.9089H3.90688Z" fill="rgb(211,211,211)" fill-opacity="0.8"/>
</svg>
