<svg xmlns="http://www.w3.org/2000/svg" width="84" height="26" fill="none" viewBox="0 0 84 26"><g clip-path="url(#clip0)"><g filter="url(#filter0_d)"><path fill="#000" d="M2 0H79.9726C82.1789 0 83.9685 1.78641 83.9726 3.99269L84 18.9927C84.004 21.2018 82.2164 22.996 80.0073 23C80.0049 23 80.0024 23 80 23H2V0Z"/></g><path fill="#ED2B2B" d="M2 0H79.9726C82.1789 0 83.9685 1.78641 83.9726 3.99269L84 18.9927C84.004 21.2018 82.2164 22.996 80.0073 23C80.0049 23 80.0024 23 80 23H2V0Z"/><path fill="#fff" d="M23.8594 8.88672H21.6426V15H20.417V8.88672H18.2197V7.89062H23.8594V8.88672ZM25.8516 10.293C26.2389 9.84375 26.7288 9.61914 27.3213 9.61914C28.4476 9.61914 29.0189 10.262 29.0352 11.5479V15H27.8486V11.5918C27.8486 11.2272 27.7689 10.9701 27.6094 10.8203C27.4531 10.6673 27.222 10.5908 26.916 10.5908C26.4408 10.5908 26.0859 10.8024 25.8516 11.2256V15H24.665V7.5H25.8516V10.293ZM31.501 15H30.3145V9.7168H31.501V15ZM30.2412 8.34473C30.2412 8.16243 30.2982 8.01107 30.4121 7.89062C30.5293 7.77018 30.6953 7.70996 30.9102 7.70996C31.125 7.70996 31.291 7.77018 31.4082 7.89062C31.5254 8.01107 31.584 8.16243 31.584 8.34473C31.584 8.52376 31.5254 8.6735 31.4082 8.79395C31.291 8.91113 31.125 8.96973 30.9102 8.96973C30.6953 8.96973 30.5293 8.91113 30.4121 8.79395C30.2982 8.6735 30.2412 8.52376 30.2412 8.34473ZM35.7588 13.5645C35.7588 13.3529 35.6709 13.1917 35.4951 13.0811C35.3226 12.9704 35.0345 12.8727 34.6309 12.7881C34.2272 12.7035 33.8903 12.596 33.6201 12.4658C33.0277 12.1794 32.7314 11.7643 32.7314 11.2207C32.7314 10.765 32.9235 10.3841 33.3076 10.0781C33.6917 9.77214 34.18 9.61914 34.7725 9.61914C35.404 9.61914 35.9134 9.77539 36.3008 10.0879C36.6914 10.4004 36.8867 10.8057 36.8867 11.3037H35.7002C35.7002 11.0758 35.6156 10.887 35.4463 10.7373C35.277 10.5843 35.0524 10.5078 34.7725 10.5078C34.512 10.5078 34.2988 10.568 34.1328 10.6885C33.9701 10.8089 33.8887 10.9701 33.8887 11.1719C33.8887 11.3542 33.9652 11.4958 34.1182 11.5967C34.2712 11.6976 34.5804 11.8001 35.0459 11.9043C35.5114 12.0052 35.876 12.1273 36.1396 12.2705C36.4066 12.4105 36.6035 12.5798 36.7305 12.7783C36.8607 12.9769 36.9258 13.2178 36.9258 13.501C36.9258 13.9762 36.7288 14.362 36.335 14.6582C35.9411 14.9512 35.4251 15.0977 34.7871 15.0977C34.3542 15.0977 33.9684 15.0195 33.6299 14.8633C33.2913 14.707 33.0277 14.4922 32.8389 14.2188C32.6501 13.9453 32.5557 13.6507 32.5557 13.335H33.708C33.7243 13.6149 33.8301 13.8314 34.0254 13.9844C34.2207 14.1341 34.4795 14.209 34.8018 14.209C35.1143 14.209 35.3519 14.1504 35.5146 14.0332C35.6774 13.9128 35.7588 13.7565 35.7588 13.5645ZM46.1445 13.2422L47.2383 7.89062H48.4639L46.8232 15H45.6416L44.2891 9.80957L42.9072 15H41.7207L40.0801 7.89062H41.3057L42.4092 13.2324L43.7666 7.89062H44.8018L46.1445 13.2422ZM51.4229 15.0977C50.6709 15.0977 50.0605 14.8617 49.5918 14.3896C49.1263 13.9144 48.8936 13.2829 48.8936 12.4951V12.3486C48.8936 11.8213 48.9945 11.3509 49.1963 10.9375C49.4014 10.5208 49.6878 10.1969 50.0557 9.96582C50.4235 9.7347 50.8337 9.61914 51.2861 9.61914C52.0055 9.61914 52.5605 9.84863 52.9512 10.3076C53.3451 10.7666 53.542 11.416 53.542 12.2559V12.7344H50.0898C50.1257 13.1706 50.2705 13.5156 50.5244 13.7695C50.7816 14.0234 51.1038 14.1504 51.4912 14.1504C52.0348 14.1504 52.4775 13.9307 52.8193 13.4912L53.459 14.1016C53.2474 14.4173 52.9642 14.6631 52.6094 14.8389C52.2578 15.0114 51.8623 15.0977 51.4229 15.0977ZM51.2812 10.5713C50.9557 10.5713 50.6921 10.6852 50.4902 10.9131C50.2917 11.141 50.1647 11.4583 50.1094 11.8652H52.3701V11.7773C52.3441 11.3802 52.2383 11.0807 52.0527 10.8789C51.8672 10.6738 51.61 10.5713 51.2812 10.5713ZM56.7939 15.0977C56.042 15.0977 55.4316 14.8617 54.9629 14.3896C54.4974 13.9144 54.2646 13.2829 54.2646 12.4951V12.3486C54.2646 11.8213 54.3656 11.3509 54.5674 10.9375C54.7725 10.5208 55.0589 10.1969 55.4268 9.96582C55.7946 9.7347 56.2048 9.61914 56.6572 9.61914C57.3766 9.61914 57.9316 9.84863 58.3223 10.3076C58.7161 10.7666 58.9131 11.416 58.9131 12.2559V12.7344H55.4609C55.4967 13.1706 55.6416 13.5156 55.8955 13.7695C56.1527 14.0234 56.4749 14.1504 56.8623 14.1504C57.4059 14.1504 57.8486 13.9307 58.1904 13.4912L58.8301 14.1016C58.6185 14.4173 58.3353 14.6631 57.9805 14.8389C57.6289 15.0114 57.2334 15.0977 56.7939 15.0977ZM56.6523 10.5713C56.3268 10.5713 56.0632 10.6852 55.8613 10.9131C55.6628 11.141 55.5358 11.4583 55.4805 11.8652H57.7412V11.7773C57.7152 11.3802 57.6094 11.0807 57.4238 10.8789C57.2383 10.6738 56.9811 10.5713 56.6523 10.5713ZM61.5547 12.7344L61.0273 13.2764V15H59.8408V7.5H61.0273V11.8262L61.3984 11.3623L62.8584 9.7168H64.2842L62.3213 11.9189L64.4941 15H63.1221L61.5547 12.7344Z"/><path fill="#A51B1B" fill-rule="evenodd" d="M2 23C-0.666667 24.0531 -0.666667 25.0531 2 26C2 26 2 25 2 23Z" clip-rule="evenodd"/><path fill="#ED2B2B" fill-rule="evenodd" d="M0 24.4841C0.0640346 24.0048 0.730701 23.5101 2 23C2 23 2 15.6561 2 0.968254H0V24.4841Z" clip-rule="evenodd"/><path fill="#ED2B2B" fill-rule="evenodd" d="M2 -1.33514e-05C-0.666667 1.03193 -0.666667 2.02135 2 2.96823C2 2.96823 2 1.97882 2 -1.33514e-05Z" clip-rule="evenodd"/><path fill="#F8F8F8" fill-rule="evenodd" d="M0 1.45236C0.115245 0.951584 0.781911 0.467462 2 -3.8147e-06C2 -3.8147e-06 1.33333 -3.8147e-06 0 -3.8147e-06V1.45236Z" clip-rule="evenodd"/></g><defs><filter id="filter0_d" width="82.4" height="23.9" x="2" y="0" color-interpolation-filters="sRGB" filterUnits="userSpaceOnUse"><feFlood flood-opacity="0" result="BackgroundImageFix"/><feColorMatrix in="SourceAlpha" type="matrix" values="0 0 0 0 0 0 0 0 0 0 0 0 0 0 0 0 0 0 127 0"/><feOffset dx=".2" dy=".7"/><feGaussianBlur stdDeviation=".1"/><feColorMatrix type="matrix" values="0 0 0 0 0 0 0 0 0 0 0 0 0 0 0 0 0 0 0.15 0"/><feBlend in2="BackgroundImageFix" mode="normal" result="effect1_dropShadow"/><feBlend in="SourceGraphic" in2="effect1_dropShadow" mode="normal" result="shape"/></filter><clipPath id="clip0"><rect width="84" height="26" fill="#fff"/></clipPath></defs></svg>